<?xml version="1.0" encoding="UTF-8" standalone="no"?>
<svg
   width="239"
   height="73"
   viewBox="0 0 239 73"
   fill="none"
   version="1.1"
   id="svg91"
   sodipodi:docname="6721ec8bb9aaa4a71fc7c136_uah-logo-gradient.svg"
   inkscape:version="1.4.2 (ebf0e940d0, 2025-05-08)"
   xmlns:inkscape="http://www.inkscape.org/namespaces/inkscape"
   xmlns:sodipodi="http://sodipodi.sourceforge.net/DTD/sodipodi-0.dtd"
   xmlns="http://www.w3.org/2000/svg"
   xmlns:svg="http://www.w3.org/2000/svg">
  <sodipodi:namedview
     id="namedview91"
     pagecolor="#ffffff"
     bordercolor="#000000"
     borderopacity="0.25"
     inkscape:showpageshadow="2"
     inkscape:pageopacity="0.0"
     inkscape:pagecheckerboard="0"
     inkscape:deskcolor="#d1d1d1"
     inkscape:zoom="3.2887029"
     inkscape:cx="119.34796"
     inkscape:cy="36.640585"
     inkscape:window-width="3840"
     inkscape:window-height="2091"
     inkscape:window-x="0"
     inkscape:window-y="32"
     inkscape:window-maximized="1"
     inkscape:current-layer="svg91" />
  <path
     d="M163.68 8.74949H163.56C163.38 8.34949 163.12 7.94949 162.77 7.53949C162.43 7.11949 161.98 6.77949 161.43 6.49949C160.88 6.21949 160.19 6.07949 159.37 6.07949C158.29 6.07949 157.3 6.35949 156.39 6.91949C155.49 7.47949 154.77 8.31949 154.22 9.43949C153.68 10.5595 153.41 11.9595 153.41 13.6495C153.41 15.3395 153.67 16.6795 154.2 17.8095C154.73 18.9295 155.45 19.7895 156.35 20.3695C157.26 20.9495 158.27 21.2295 159.39 21.2295C160.18 21.2295 160.85 21.0995 161.4 20.8395C161.96 20.5795 162.41 20.2495 162.75 19.8495C163.1 19.4495 163.37 19.0395 163.57 18.6295H163.74V20.9895H167.77V1.34949H163.7V8.72949L163.68 8.74949ZM163.39 15.9295C163.15 16.5795 162.8 17.0895 162.34 17.4495C161.89 17.8095 161.33 17.9895 160.67 17.9895C160.01 17.9895 159.43 17.8095 158.97 17.4395C158.52 17.0695 158.17 16.5595 157.92 15.9095C157.68 15.2495 157.57 14.4895 157.57 13.6395C157.57 12.7895 157.69 12.0395 157.92 11.3995C158.16 10.7495 158.5 10.2495 158.97 9.88949C159.43 9.52949 160 9.33949 160.67 9.33949C161.34 9.33949 161.89 9.51949 162.35 9.86949C162.81 10.2195 163.16 10.7195 163.4 11.3695C163.64 12.0195 163.76 12.7795 163.76 13.6495C163.76 14.5195 163.64 15.2895 163.39 15.9395V15.9295Z"
     fill="url(#paint0_linear_49_896)"
     id="path1"
     style="fill:#000000;fill-opacity:1" />
  <path
     d="M148.74 7.94954C148.11 7.32954 147.38 6.86954 146.53 6.55954C145.69 6.24954 144.79 6.08954 143.82 6.08954C142.38 6.08954 141.12 6.40954 140.04 7.04954C138.97 7.68954 138.14 8.57954 137.56 9.72954C136.98 10.8795 136.68 12.1995 136.68 13.7195C136.68 15.2395 136.97 16.6195 137.56 17.7595C138.15 18.8895 138.99 19.7695 140.07 20.3895C141.16 20.9995 142.47 21.3095 143.98 21.3095C145.19 21.3095 146.27 21.1195 147.19 20.7495C148.12 20.3695 148.88 19.8495 149.47 19.1795C150.06 18.4995 150.46 17.7095 150.65 16.7995L146.87 16.5495C146.73 16.9195 146.52 17.2295 146.26 17.4895C145.99 17.7495 145.67 17.9395 145.29 18.0695C144.91 18.1995 144.5 18.2595 144.04 18.2595C143.36 18.2595 142.76 18.1195 142.27 17.8295C141.77 17.5395 141.38 17.1295 141.11 16.5995C140.84 16.0695 140.71 15.4395 140.71 14.7095H150.74V13.5895C150.74 12.3395 150.56 11.2395 150.21 10.3095C149.86 9.36954 149.37 8.58954 148.73 7.96954L148.74 7.94954ZM140.73 12.1595C140.76 11.6295 140.88 11.1495 141.12 10.7095C141.39 10.2295 141.76 9.84954 142.23 9.56954C142.71 9.27954 143.26 9.13954 143.88 9.13954C144.5 9.13954 145 9.26954 145.44 9.52954C145.89 9.78954 146.25 10.1395 146.5 10.5895C146.76 11.0395 146.88 11.5595 146.88 12.1495H140.71L140.73 12.1595Z"
     fill="url(#paint1_linear_49_896)"
     id="path2"
     style="fill:#000000;fill-opacity:1" />
  <path
     d="M133.41 17.8695C133.22 17.8995 133.03 17.9195 132.83 17.9195C132.56 17.9195 132.31 17.8795 132.1 17.7995C131.9 17.7195 131.74 17.5695 131.62 17.3695C131.51 17.1595 131.45 16.8595 131.45 16.4895V9.35952H134.22V6.28952H131.45V2.75952H127.37V6.28952H125.36V9.35952H127.37V17.0295C127.37 17.9995 127.57 18.7895 127.97 19.4295C128.38 20.0595 128.95 20.5295 129.69 20.8295C130.43 21.1295 131.29 21.2595 132.28 21.2195C132.81 21.1995 133.26 21.1495 133.63 21.0595C134 20.9795 134.29 20.8995 134.49 20.8395L133.85 17.7995C133.75 17.8195 133.6 17.8495 133.41 17.8895V17.8695Z"
     fill="url(#paint2_linear_49_896)"
     id="path3"
     style="fill:#000000;fill-opacity:1" />
  <path
     d="M122.58 6.27954H118.5V21.0095H122.58V6.27954Z"
     fill="url(#paint3_linear_49_896)"
     id="path4"
     style="fill:#000000;fill-opacity:1" />
  <path
     d="M120.55 0.249512C119.94 0.249512 119.42 0.449512 118.99 0.859512C118.56 1.25951 118.35 1.74951 118.35 2.30951C118.35 2.86951 118.56 3.36951 118.99 3.77951C119.42 4.17951 119.95 4.37951 120.55 4.37951C121.15 4.37951 121.67 4.17951 122.1 3.77951C122.53 3.36951 122.75 2.87951 122.75 2.30951C122.75 1.73951 122.53 1.25951 122.1 0.859512C121.67 0.449512 121.15 0.249512 120.55 0.249512Z"
     fill="url(#paint4_linear_49_896)"
     id="path5"
     style="fill:#000000;fill-opacity:1" />
  <path
     d="M112.33 6.75954C111.57 6.30954 110.68 6.08954 109.65 6.08954C108.56 6.08954 107.63 6.33954 106.86 6.84954C106.09 7.34954 105.55 8.02954 105.22 8.87954H105.05V6.27954H101.16V21.0095H105.24V12.4995C105.24 11.8695 105.36 11.3295 105.59 10.8795C105.83 10.4295 106.15 10.0795 106.57 9.83954C106.99 9.59954 107.48 9.48954 108.03 9.48954C108.85 9.48954 109.49 9.74954 109.96 10.2595C110.43 10.7695 110.66 11.4695 110.65 12.3695V21.0195H114.73V11.6395C114.73 10.4995 114.52 9.50954 114.1 8.68954C113.68 7.85954 113.09 7.21954 112.33 6.76954V6.75954Z"
     fill="url(#paint5_linear_49_896)"
     id="path6"
     style="fill:#000000;fill-opacity:1" />
  <path
     d="M93.13 13.7695C93.13 14.5195 92.96 15.1795 92.63 15.7595C92.3 16.3395 91.84 16.7995 91.24 17.1295C90.65 17.4595 89.95 17.6295 89.14 17.6295C88.33 17.6295 87.64 17.4595 87.04 17.1295C86.44 16.7995 85.97 16.3395 85.64 15.7595C85.31 15.1795 85.15 14.5095 85.15 13.7695V1.36951H81V14.1195C81 15.5495 81.34 16.7995 82.02 17.8795C82.7 18.9595 83.65 19.7895 84.87 20.3895C86.09 20.9795 87.52 21.2795 89.15 21.2795C90.78 21.2795 92.2 20.9795 93.42 20.3895C94.64 19.7895 95.59 18.9495 96.27 17.8795C96.95 16.8095 97.3 15.5495 97.3 14.1195V1.36951H93.15V13.7695H93.13Z"
     fill="url(#paint6_linear_49_896)"
     id="path7"
     style="fill:#000000;fill-opacity:1" />
  <path
     d="M236.61 32.8196C235.85 32.3696 234.96 32.1496 233.93 32.1496C232.84 32.1496 231.91 32.3996 231.14 32.9096C230.37 33.4096 229.83 34.0896 229.5 34.9396H229.33V32.3396H225.44V47.0696H229.52V38.5596C229.52 37.9296 229.64 37.3896 229.87 36.9396C230.11 36.4896 230.43 36.1396 230.85 35.8996C231.27 35.6596 231.76 35.5496 232.31 35.5496C233.13 35.5496 233.77 35.8096 234.24 36.3196C234.71 36.8296 234.94 37.5296 234.93 38.4296V47.0796H239.01V37.6996C239.01 36.5596 238.8 35.5696 238.38 34.7496C237.96 33.9196 237.37 33.2796 236.61 32.8296V32.8196Z"
     fill="url(#paint7_linear_49_896)"
     id="path8"
     style="fill:#000000;fill-opacity:1" />
  <path
     d="M218.85 33.1096C217.77 32.4696 216.49 32.1496 214.99 32.1496C213.49 32.1496 212.21 32.4696 211.13 33.1096C210.05 33.7396 209.22 34.6296 208.63 35.7796C208.04 36.9196 207.75 38.2496 207.75 39.7696C207.75 41.2896 208.04 42.5996 208.63 43.7496C209.22 44.8896 210.05 45.7796 211.13 46.4196C212.22 47.0496 213.51 47.3696 214.99 47.3696C216.47 47.3696 217.76 47.0496 218.85 46.4196C219.94 45.7796 220.77 44.8896 221.36 43.7496C221.95 42.6096 222.24 41.2796 222.24 39.7696C222.24 38.2596 221.95 36.9196 221.36 35.7796C220.77 34.6396 219.93 33.7496 218.85 33.1096ZM217.73 42.0196C217.5 42.6896 217.16 43.2196 216.7 43.6096C216.25 43.9896 215.68 44.1896 215 44.1896C214.32 44.1896 213.74 43.9996 213.27 43.6096C212.81 43.2196 212.46 42.6896 212.23 42.0196C212 41.3496 211.88 40.5896 211.88 39.7296C211.88 38.8696 211.99 38.1096 212.23 37.4396C212.47 36.7696 212.81 36.2396 213.27 35.8496C213.74 35.4596 214.31 35.2696 215 35.2696C215.69 35.2696 216.24 35.4596 216.7 35.8496C217.15 36.2396 217.49 36.7696 217.73 37.4396C217.97 38.1096 218.08 38.8696 218.08 39.7296C218.08 40.5896 217.96 41.3496 217.73 42.0196Z"
     fill="url(#paint8_linear_49_896)"
     id="path9"
     style="fill:#000000;fill-opacity:1" />
  <path
     d="M202.49 26.3095C201.88 26.3095 201.36 26.5095 200.93 26.9195C200.5 27.3195 200.29 27.8095 200.29 28.3695C200.29 28.9295 200.5 29.4295 200.93 29.8395C201.36 30.2395 201.89 30.4395 202.49 30.4395C203.09 30.4395 203.61 30.2395 204.04 29.8395C204.47 29.4295 204.69 28.9395 204.69 28.3695C204.69 27.7995 204.47 27.3195 204.04 26.9195C203.61 26.5095 203.09 26.3095 202.49 26.3095Z"
     fill="url(#paint9_linear_49_896)"
     id="path10"
     style="fill:#000000;fill-opacity:1" />
  <path
     d="M204.52 32.3396H200.44V47.0696H204.52V32.3396Z"
     fill="url(#paint10_linear_49_896)"
     id="path11"
     style="fill:#000000;fill-opacity:1" />
  <path
     d="M196.42 43.9296C196.23 43.9596 196.04 43.9795 195.84 43.9795C195.57 43.9795 195.32 43.9396 195.11 43.8596C194.91 43.7796 194.75 43.6296 194.63 43.4296C194.52 43.2196 194.46 42.9195 194.46 42.5495V35.4195H197.23V32.3495H194.46V28.8195H190.38V32.3495H188.37V35.4195H190.38V43.0895C190.38 44.0595 190.58 44.8495 190.98 45.4895C191.38 46.1295 191.96 46.5895 192.7 46.8895C193.44 47.1895 194.3 47.3195 195.29 47.2795C195.82 47.2595 196.27 47.2095 196.64 47.1195C197.01 47.0395 197.3 46.9596 197.5 46.8996L196.86 43.8596C196.76 43.8796 196.61 43.9095 196.42 43.9495V43.9296Z"
     fill="url(#paint11_linear_49_896)"
     id="path12"
     style="fill:#000000;fill-opacity:1" />
  <path
     d="M183.8 33.3296C183.22 32.9296 182.55 32.6296 181.8 32.4396C181.05 32.2496 180.27 32.1496 179.45 32.1496C178.27 32.1496 177.24 32.3296 176.34 32.6896C175.45 33.0396 174.73 33.5496 174.16 34.1996C173.6 34.8496 173.22 35.6296 173.03 36.5196L176.81 36.8296C176.95 36.3396 177.24 35.9396 177.67 35.6196C178.1 35.2896 178.69 35.1296 179.42 35.1296C180.12 35.1296 180.65 35.2996 181.03 35.6296C181.41 35.9596 181.61 36.4296 181.61 37.0396V37.0996C181.61 37.4096 181.49 37.6496 181.26 37.8096C181.02 37.9696 180.64 38.0896 180.12 38.1696C179.6 38.2496 178.91 38.3296 178.05 38.4196C177.32 38.4896 176.62 38.6096 175.96 38.7796C175.3 38.9496 174.71 39.2096 174.2 39.5496C173.68 39.8896 173.27 40.3396 172.97 40.8896C172.67 41.4496 172.52 42.1296 172.52 42.9496C172.52 43.9196 172.73 44.7296 173.15 45.3896C173.58 46.0396 174.16 46.5196 174.89 46.8596C175.63 47.1896 176.46 47.3496 177.4 47.3496C178.13 47.3496 178.77 47.2496 179.33 47.0596C179.89 46.8596 180.36 46.5896 180.76 46.2396C181.16 45.8896 181.47 45.4796 181.71 45.0196H181.82V47.0596H185.69V37.1296C185.69 36.2496 185.52 35.4996 185.18 34.8796C184.84 34.2496 184.38 33.7296 183.79 33.3296H183.8ZM181.64 41.7996C181.64 42.3196 181.51 42.7796 181.25 43.1896C180.99 43.5996 180.63 43.9296 180.17 44.1696C179.71 44.4096 179.18 44.5196 178.58 44.5196C177.98 44.5196 177.44 44.3796 177.03 44.0896C176.63 43.7996 176.43 43.3696 176.43 42.8096C176.43 42.4296 176.53 42.1096 176.73 41.8496C176.93 41.5896 177.21 41.3796 177.56 41.2296C177.92 41.0796 178.34 40.9596 178.82 40.8896C179.04 40.8596 179.29 40.8196 179.57 40.7796C179.84 40.7396 180.12 40.6896 180.39 40.6396C180.67 40.5796 180.91 40.5196 181.13 40.4596C181.35 40.3896 181.53 40.3096 181.66 40.2296V41.7896L181.64 41.7996Z"
     fill="url(#paint12_linear_49_896)"
     id="path13"
     style="fill:#000000;fill-opacity:1" />
  <path
     d="M164.8 32.1496C163.72 32.1496 162.78 32.4096 161.99 32.9196C161.2 33.4196 160.66 34.0996 160.36 34.9396H160.21C159.97 34.0796 159.5 33.4096 158.79 32.9096C158.08 32.4096 157.22 32.1496 156.21 32.1496C155.2 32.1496 154.36 32.3996 153.64 32.8996C152.92 33.3996 152.41 34.0796 152.11 34.9396H151.94V32.3396H148.05V47.0696H152.13V38.2296C152.13 37.6896 152.24 37.2096 152.45 36.8096C152.66 36.3996 152.95 36.0796 153.3 35.8596C153.66 35.6296 154.07 35.5096 154.53 35.5096C155.2 35.5096 155.74 35.7196 156.15 36.1496C156.57 36.5796 156.77 37.1496 156.77 37.8796V47.0696H160.73V38.0796C160.73 37.3096 160.94 36.6996 161.35 36.2296C161.76 35.7596 162.34 35.5196 163.08 35.5196C163.73 35.5196 164.28 35.7196 164.71 36.1296C165.14 36.5396 165.36 37.1496 165.36 37.9696V47.0696H169.44V37.1696C169.44 35.5696 169.01 34.3396 168.15 33.4696C167.29 32.5896 166.18 32.1596 164.8 32.1596V32.1496Z"
     fill="url(#paint13_linear_49_896)"
     id="path14"
     style="fill:#000000;fill-opacity:1" />
  <path
     d="M141.45 33.1096C140.37 32.4696 139.08 32.1496 137.6 32.1496C136.12 32.1496 134.82 32.4696 133.74 33.1096C132.66 33.7396 131.83 34.6296 131.24 35.7796C130.65 36.9196 130.36 38.2496 130.36 39.7696C130.36 41.2896 130.65 42.5996 131.24 43.7496C131.83 44.8896 132.66 45.7796 133.74 46.4196C134.83 47.0496 136.12 47.3696 137.6 47.3696C139.08 47.3696 140.37 47.0496 141.45 46.4196C142.54 45.7796 143.37 44.8896 143.96 43.7496C144.55 42.6096 144.84 41.2796 144.84 39.7696C144.84 38.2596 144.55 36.9196 143.96 35.7796C143.37 34.6396 142.53 33.7496 141.45 33.1096ZM140.33 42.0196C140.1 42.6896 139.76 43.2196 139.3 43.6096C138.85 43.9896 138.28 44.1896 137.6 44.1896C136.92 44.1896 136.34 43.9996 135.87 43.6096C135.41 43.2196 135.06 42.6896 134.83 42.0196C134.6 41.3496 134.48 40.5896 134.48 39.7296C134.48 38.8696 134.59 38.1096 134.83 37.4396C135.07 36.7696 135.41 36.2396 135.87 35.8496C136.34 35.4596 136.91 35.2696 137.6 35.2696C138.29 35.2696 138.84 35.4596 139.3 35.8496C139.75 36.2396 140.1 36.7696 140.33 37.4396C140.57 38.1096 140.69 38.8696 140.69 39.7296C140.69 40.5896 140.57 41.3496 140.33 42.0196Z"
     fill="url(#paint14_linear_49_896)"
     id="path15"
     style="fill:#000000;fill-opacity:1" />
  <path
     d="M127.08 43.9296C126.89 43.9596 126.7 43.9795 126.5 43.9795C126.23 43.9795 125.98 43.9396 125.77 43.8596C125.56 43.7796 125.4 43.6296 125.29 43.4296C125.18 43.2196 125.12 42.9195 125.12 42.5495V35.4195H127.89V32.3495H125.12V28.8195H121.04V32.3495H119.03V35.4195H121.04V43.0895C121.04 44.0595 121.23 44.8495 121.64 45.4895C122.05 46.1195 122.62 46.5895 123.36 46.8895C124.1 47.1895 124.97 47.3195 125.95 47.2795C126.48 47.2595 126.93 47.2095 127.3 47.1195C127.67 47.0395 127.96 46.9596 128.16 46.8996L127.52 43.8596C127.42 43.8796 127.27 43.9095 127.08 43.9495V43.9296Z"
     fill="url(#paint15_linear_49_896)"
     id="path16"
     style="fill:#000000;fill-opacity:1" />
  <path
     d="M112.17 40.7995C112.17 41.4595 112.05 42.0095 111.78 42.4595C111.52 42.9095 111.17 43.2495 110.74 43.4795C110.31 43.6995 109.85 43.8195 109.36 43.8195C108.59 43.8195 107.97 43.5695 107.51 43.0595C107.05 42.5495 106.82 41.8695 106.81 40.9995V32.3495H102.72V41.7295C102.72 42.8795 102.94 43.8695 103.35 44.6895C103.77 45.5095 104.36 46.1495 105.11 46.5995C105.86 47.0495 106.72 47.2695 107.71 47.2695C108.82 47.2695 109.75 47.0095 110.52 46.4795C111.29 45.9595 111.85 45.2595 112.18 44.3995H112.33V47.0795H116.25V32.3495H112.17V40.8095V40.7995Z"
     fill="url(#paint16_linear_49_896)"
     id="path17"
     style="fill:#000000;fill-opacity:1" />
  <path
     d="M87.78 27.4295L81 47.0695H85.45L86.91 42.5895H94L95.45 47.0695H99.9L93.13 27.4295H87.78ZM87.96 39.3495L90.38 31.9195H90.53L92.94 39.3495H87.96Z"
     fill="url(#paint17_linear_49_896)"
     id="path18"
     style="fill:#000000;fill-opacity:1" />
  <path
     d="M132.57 60.4496C132.03 59.3296 131.3 58.4796 130.39 57.9296C129.48 57.3696 128.49 57.0896 127.42 57.0896C126.59 57.0896 125.9 57.2296 125.35 57.5096C124.8 57.7796 124.35 58.1296 124.01 58.5496C123.67 58.9596 123.41 59.3596 123.23 59.7596H123.11V52.3796H119.03V72.0196H123.06V69.6596H123.24C123.42 70.0696 123.69 70.4796 124.04 70.8796C124.39 71.2796 124.84 71.6096 125.39 71.8696C125.95 72.1296 126.62 72.2596 127.41 72.2596C128.53 72.2596 129.54 71.9696 130.44 71.3996C131.35 70.8196 132.06 69.9696 132.59 68.8396C133.12 67.7096 133.39 66.3196 133.39 64.6796C133.39 63.0396 133.12 61.5896 132.57 60.4696V60.4496ZM128.85 66.9196C128.61 67.5696 128.27 68.0796 127.8 68.4496C127.34 68.8096 126.78 68.9996 126.11 68.9996C125.44 68.9996 124.89 68.8196 124.43 68.4596C123.97 68.0996 123.62 67.5896 123.37 66.9396C123.13 66.2896 123.01 65.5196 123.01 64.6496C123.01 63.7796 123.13 63.0096 123.37 62.3696C123.61 61.7196 123.96 61.2296 124.42 60.8696C124.88 60.5196 125.44 60.3396 126.11 60.3396C126.78 60.3396 127.35 60.5196 127.81 60.8896C128.27 61.2496 128.62 61.7596 128.85 62.3996C129.09 63.0496 129.2 63.7896 129.2 64.6396C129.2 65.4896 129.08 66.2496 128.84 66.9096L128.85 66.9196Z"
     fill="url(#paint18_linear_49_896)"
     id="path19"
     style="fill:#000000;fill-opacity:1" />
  <path
     d="M111.05 65.7395C111.05 66.3995 110.93 66.9495 110.66 67.3995C110.4 67.8495 110.05 68.1895 109.63 68.4195C109.2 68.6395 108.74 68.7595 108.25 68.7595C107.48 68.7595 106.86 68.5095 106.4 67.9995C105.94 67.4895 105.71 66.8095 105.7 65.9395V57.2895H101.62V66.6695C101.62 67.8195 101.84 68.8095 102.25 69.6295C102.67 70.4495 103.26 71.0895 104.01 71.5395C104.76 71.9895 105.62 72.2095 106.61 72.2095C107.72 72.2095 108.65 71.9495 109.42 71.4195C110.19 70.8995 110.75 70.1995 111.08 69.3395H111.23V72.0195H115.15V57.2895H111.06V65.7495L111.05 65.7395Z"
     fill="url(#paint19_linear_49_896)"
     id="path20"
     style="fill:#000000;fill-opacity:1" />
  <path
     d="M93.58 60.4696H85.15V52.3696H81V72.0096H85.15V63.8896H93.58V72.0096H97.72V52.3696H93.58V60.4696Z"
     fill="url(#paint20_linear_49_896)"
     id="path21"
     style="fill:#000000;fill-opacity:1" />
  <path
     d="M30.5416 9.3645C30.7316 9.0545 30.9416 8.7645 31.1516 8.4845C30.6516 8.0345 30.1016 7.6245 29.5016 7.2645C25.1416 4.6845 19.6716 5.8745 17.0416 9.8345C16.9216 10.0145 16.8116 10.1945 16.7016 10.3745C16.3616 10.9645 15.7616 12.2645 15.5616 13.7045C15.5616 13.7245 15.5416 13.8745 15.5416 13.8645C15.8016 13.9945 16.0716 14.1345 16.3216 14.2845C18.9716 15.7045 25.9116 16.1845 30.5416 9.3545V9.3645Z"
     fill="white"
     id="path22"
     style="fill:#000000;fill-opacity:1" />
  <path
     d="M33.4017 10.4345C36.3717 13.6445 37.1017 18.4345 34.8417 22.2745C33.4117 24.9645 32.7117 32.0045 41.4917 37.6745C41.8217 37.7845 42.1217 37.9145 42.3917 38.0445C42.5417 38.1145 42.6817 38.2045 42.8317 38.2845C46.2217 40.1545 50.4117 39.5145 53.2917 36.9145C53.2017 36.8445 52.4717 36.3545 52.4717 36.3545C45.3617 31.4745 45.7117 24.1245 47.2917 21.0745C47.3317 20.9945 47.3817 20.9145 47.4217 20.8345C49.8017 16.6845 48.4317 11.3845 44.3017 8.92451C40.6917 6.77451 36.1617 7.50451 33.4017 10.4345Z"
     fill="white"
     id="path23"
     style="fill:#000000;fill-opacity:1" />
  <path
     d="M54.0517 35.6445C54.3617 35.8345 54.6517 36.0445 54.9317 36.2545C55.3817 35.7645 55.7917 35.2045 56.1517 34.6045C58.6517 30.3745 57.5917 24.5945 53.3117 21.9645C53.2117 21.9045 53.1216 21.8445 52.9916 21.7745C52.3816 21.4345 51.1217 20.8545 49.7217 20.6645C49.7017 20.6645 49.5316 20.6445 49.5316 20.6345C49.5016 20.6845 49.4817 20.7445 49.4517 20.7945C49.3517 21.0045 49.2317 21.2045 49.1117 21.4145C47.6917 24.0645 47.2117 31.0045 54.0417 35.6345L54.0517 35.6445Z"
     fill="white"
     id="path24"
     style="fill:#000000;fill-opacity:1" />
  <path
     d="M52.9817 38.5045C49.7717 41.4745 44.9817 42.2045 41.1417 39.9445C38.4517 38.5145 31.4117 37.8145 25.7417 46.5945C25.6117 46.9745 25.4617 47.3545 25.2617 47.7045C23.2317 51.1345 23.8417 55.4445 26.5017 58.3945C26.5717 58.3045 27.0617 57.5745 27.0617 57.5745C31.9217 50.4945 39.2317 50.8145 42.3017 52.3745C42.3717 52.4145 42.4417 52.4445 42.5117 52.4845C46.6717 54.9245 52.0217 53.5545 54.4917 49.4045C56.6417 45.7945 55.9117 41.2645 52.9817 38.5045Z"
     fill="white"
     id="path25"
     style="fill:#000000;fill-opacity:1" />
  <path
     d="M27.7717 59.1545C27.5817 59.4645 27.3717 59.7545 27.1617 60.0345C27.6617 60.4845 28.2117 60.8945 28.8117 61.2545C32.9417 63.6945 38.5517 62.7445 41.2517 58.7145C41.3717 58.5345 41.4917 58.3445 41.6017 58.1545C41.9417 57.5745 42.5417 56.2745 42.7417 54.8345C42.7417 54.7745 42.7617 54.7145 42.7617 54.6545C42.7617 54.6545 42.0617 54.2845 41.9817 54.2345C39.3317 52.8145 32.3917 52.3345 27.7617 59.1645L27.7717 59.1545Z"
     fill="white"
     id="path26"
     style="fill:#000000;fill-opacity:1" />
  <path
     d="M24.9117 58.0845C21.9417 54.8745 21.2117 50.0845 23.4717 46.2445C24.9017 43.5545 25.6017 36.5145 16.8217 30.8445C16.4417 30.7145 16.0517 30.5745 15.7117 30.3645C12.2817 28.3345 7.97167 28.9445 5.02167 31.6045C5.11167 31.6745 5.84167 32.1645 5.84167 32.1645C12.9117 37.0145 12.6117 44.3045 11.0517 47.3845C11.0017 47.4745 10.9517 47.5645 10.9017 47.6545C8.50167 51.8045 9.87167 57.1245 14.0017 59.5945C17.6117 61.7445 22.1417 61.0145 24.9017 58.0845H24.9117Z"
     fill="white"
     id="path27"
     style="fill:#000000;fill-opacity:1" />
  <path
     d="M4.26167 32.8745C3.95167 32.6845 3.66167 32.4745 3.38167 32.2645C2.93167 32.7545 2.52167 33.3145 2.16167 33.9145C-0.408332 38.2645 0.761668 43.7245 4.70167 46.3645C4.89167 46.4945 5.09167 46.6145 5.30167 46.7345C5.91167 47.0845 7.20167 47.6745 8.64167 47.8645C8.66167 47.8645 8.78167 47.8745 8.77167 47.8845C8.90167 47.6245 9.04167 47.3545 9.19167 47.1045C10.6117 44.4545 11.0917 37.5145 4.26167 32.8845V32.8745Z"
     fill="white"
     id="path28"
     style="fill:#000000;fill-opacity:1" />
  <path
     d="M5.33166 30.0145C8.54166 27.0445 13.3317 26.3145 17.1717 28.5745C19.8617 30.0045 26.9017 30.7045 32.5717 21.9245C32.6917 21.5645 32.8317 21.2345 32.9817 20.9345C33.0217 20.8445 33.0717 20.7645 33.1217 20.6745C35.0517 17.2645 34.4317 13.0245 31.8017 10.1245C31.6417 10.3345 31.4917 10.5545 31.3517 10.7745C31.2917 10.8745 31.2217 10.9645 31.1617 11.0645C26.3017 18.0245 19.0517 17.6945 16.0017 16.1345C15.9017 16.0845 15.8017 16.0245 15.7017 15.9645C11.5617 13.6145 6.27166 14.9845 3.82166 19.0945C1.67166 22.7045 2.40166 27.2345 5.33166 29.9945V30.0145Z"
     fill="white"
     id="path29"
     style="fill:#000000;fill-opacity:1" />
  <defs
     id="defs91">
    <linearGradient
       id="paint0_linear_49_896"
       x1="94.9881"
       y1="81.1791"
       x2="94.9881"
       y2="-39.0398"
       gradientUnits="userSpaceOnUse">
      <stop
         stop-color="white"
         id="stop29" />
      <stop
         offset="0.336"
         stop-color="#F3F3F3"
         id="stop30" />
      <stop
         offset="1"
         stop-color="#DADADA"
         id="stop31" />
    </linearGradient>
    <linearGradient
       id="paint1_linear_49_896"
       x1="94.9881"
       y1="81.1791"
       x2="94.9881"
       y2="-39.0398"
       gradientUnits="userSpaceOnUse">
      <stop
         stop-color="white"
         id="stop32" />
      <stop
         offset="0.336"
         stop-color="#F3F3F3"
         id="stop33" />
      <stop
         offset="1"
         stop-color="#DADADA"
         id="stop34" />
    </linearGradient>
    <linearGradient
       id="paint2_linear_49_896"
       x1="94.9881"
       y1="81.1791"
       x2="94.9881"
       y2="-39.0398"
       gradientUnits="userSpaceOnUse">
      <stop
         stop-color="white"
         id="stop35" />
      <stop
         offset="0.336"
         stop-color="#F3F3F3"
         id="stop36" />
      <stop
         offset="1"
         stop-color="#DADADA"
         id="stop37" />
    </linearGradient>
    <linearGradient
       id="paint3_linear_49_896"
       x1="94.9881"
       y1="81.1791"
       x2="94.9881"
       y2="-39.0398"
       gradientUnits="userSpaceOnUse">
      <stop
         stop-color="white"
         id="stop38" />
      <stop
         offset="0.336"
         stop-color="#F3F3F3"
         id="stop39" />
      <stop
         offset="1"
         stop-color="#DADADA"
         id="stop40" />
    </linearGradient>
    <linearGradient
       id="paint4_linear_49_896"
       x1="94.9881"
       y1="81.1791"
       x2="94.9881"
       y2="-39.0398"
       gradientUnits="userSpaceOnUse">
      <stop
         stop-color="white"
         id="stop41" />
      <stop
         offset="0.336"
         stop-color="#F3F3F3"
         id="stop42" />
      <stop
         offset="1"
         stop-color="#DADADA"
         id="stop43" />
    </linearGradient>
    <linearGradient
       id="paint5_linear_49_896"
       x1="94.9881"
       y1="81.1791"
       x2="94.9881"
       y2="-39.0398"
       gradientUnits="userSpaceOnUse">
      <stop
         stop-color="white"
         id="stop44" />
      <stop
         offset="0.336"
         stop-color="#F3F3F3"
         id="stop45" />
      <stop
         offset="1"
         stop-color="#DADADA"
         id="stop46" />
    </linearGradient>
    <linearGradient
       id="paint6_linear_49_896"
       x1="94.9881"
       y1="81.1791"
       x2="94.9881"
       y2="-39.0398"
       gradientUnits="userSpaceOnUse">
      <stop
         stop-color="white"
         id="stop47" />
      <stop
         offset="0.336"
         stop-color="#F3F3F3"
         id="stop48" />
      <stop
         offset="1"
         stop-color="#DADADA"
         id="stop49" />
    </linearGradient>
    <linearGradient
       id="paint7_linear_49_896"
       x1="94.9881"
       y1="81.1791"
       x2="94.9881"
       y2="-39.0398"
       gradientUnits="userSpaceOnUse">
      <stop
         stop-color="white"
         id="stop50" />
      <stop
         offset="0.336"
         stop-color="#F3F3F3"
         id="stop51" />
      <stop
         offset="1"
         stop-color="#DADADA"
         id="stop52" />
    </linearGradient>
    <linearGradient
       id="paint8_linear_49_896"
       x1="94.9881"
       y1="81.1791"
       x2="94.9881"
       y2="-39.0398"
       gradientUnits="userSpaceOnUse">
      <stop
         stop-color="white"
         id="stop53" />
      <stop
         offset="0.336"
         stop-color="#F3F3F3"
         id="stop54" />
      <stop
         offset="1"
         stop-color="#DADADA"
         id="stop55" />
    </linearGradient>
    <linearGradient
       id="paint9_linear_49_896"
       x1="94.9881"
       y1="81.1791"
       x2="94.9881"
       y2="-39.0398"
       gradientUnits="userSpaceOnUse">
      <stop
         stop-color="white"
         id="stop56" />
      <stop
         offset="0.336"
         stop-color="#F3F3F3"
         id="stop57" />
      <stop
         offset="1"
         stop-color="#DADADA"
         id="stop58" />
    </linearGradient>
    <linearGradient
       id="paint10_linear_49_896"
       x1="94.9881"
       y1="81.1791"
       x2="94.9881"
       y2="-39.0398"
       gradientUnits="userSpaceOnUse">
      <stop
         stop-color="white"
         id="stop59" />
      <stop
         offset="0.336"
         stop-color="#F3F3F3"
         id="stop60" />
      <stop
         offset="1"
         stop-color="#DADADA"
         id="stop61" />
    </linearGradient>
    <linearGradient
       id="paint11_linear_49_896"
       x1="94.9881"
       y1="81.1791"
       x2="94.9881"
       y2="-39.0398"
       gradientUnits="userSpaceOnUse">
      <stop
         stop-color="white"
         id="stop62" />
      <stop
         offset="0.336"
         stop-color="#F3F3F3"
         id="stop63" />
      <stop
         offset="1"
         stop-color="#DADADA"
         id="stop64" />
    </linearGradient>
    <linearGradient
       id="paint12_linear_49_896"
       x1="94.9881"
       y1="81.1791"
       x2="94.9881"
       y2="-39.0398"
       gradientUnits="userSpaceOnUse">
      <stop
         stop-color="white"
         id="stop65" />
      <stop
         offset="0.336"
         stop-color="#F3F3F3"
         id="stop66" />
      <stop
         offset="1"
         stop-color="#DADADA"
         id="stop67" />
    </linearGradient>
    <linearGradient
       id="paint13_linear_49_896"
       x1="94.9881"
       y1="81.1791"
       x2="94.9881"
       y2="-39.0398"
       gradientUnits="userSpaceOnUse">
      <stop
         stop-color="white"
         id="stop68" />
      <stop
         offset="0.336"
         stop-color="#F3F3F3"
         id="stop69" />
      <stop
         offset="1"
         stop-color="#DADADA"
         id="stop70" />
    </linearGradient>
    <linearGradient
       id="paint14_linear_49_896"
       x1="94.9881"
       y1="81.1791"
       x2="94.9881"
       y2="-39.0398"
       gradientUnits="userSpaceOnUse">
      <stop
         stop-color="white"
         id="stop71" />
      <stop
         offset="0.336"
         stop-color="#F3F3F3"
         id="stop72" />
      <stop
         offset="1"
         stop-color="#DADADA"
         id="stop73" />
    </linearGradient>
    <linearGradient
       id="paint15_linear_49_896"
       x1="94.9881"
       y1="81.1791"
       x2="94.9881"
       y2="-39.0398"
       gradientUnits="userSpaceOnUse">
      <stop
         stop-color="white"
         id="stop74" />
      <stop
         offset="0.336"
         stop-color="#F3F3F3"
         id="stop75" />
      <stop
         offset="1"
         stop-color="#DADADA"
         id="stop76" />
    </linearGradient>
    <linearGradient
       id="paint16_linear_49_896"
       x1="94.9881"
       y1="81.1791"
       x2="94.9881"
       y2="-39.0398"
       gradientUnits="userSpaceOnUse">
      <stop
         stop-color="white"
         id="stop77" />
      <stop
         offset="0.336"
         stop-color="#F3F3F3"
         id="stop78" />
      <stop
         offset="1"
         stop-color="#DADADA"
         id="stop79" />
    </linearGradient>
    <linearGradient
       id="paint17_linear_49_896"
       x1="94.9881"
       y1="81.1791"
       x2="94.9881"
       y2="-39.0398"
       gradientUnits="userSpaceOnUse">
      <stop
         stop-color="white"
         id="stop80" />
      <stop
         offset="0.336"
         stop-color="#F3F3F3"
         id="stop81" />
      <stop
         offset="1"
         stop-color="#DADADA"
         id="stop82" />
    </linearGradient>
    <linearGradient
       id="paint18_linear_49_896"
       x1="94.9881"
       y1="81.1791"
       x2="94.9881"
       y2="-39.0398"
       gradientUnits="userSpaceOnUse">
      <stop
         stop-color="white"
         id="stop83" />
      <stop
         offset="0.336"
         stop-color="#F3F3F3"
         id="stop84" />
      <stop
         offset="1"
         stop-color="#DADADA"
         id="stop85" />
    </linearGradient>
    <linearGradient
       id="paint19_linear_49_896"
       x1="94.9881"
       y1="81.1791"
       x2="94.9881"
       y2="-39.0398"
       gradientUnits="userSpaceOnUse">
      <stop
         stop-color="white"
         id="stop86" />
      <stop
         offset="0.336"
         stop-color="#F3F3F3"
         id="stop87" />
      <stop
         offset="1"
         stop-color="#DADADA"
         id="stop88" />
    </linearGradient>
    <linearGradient
       id="paint20_linear_49_896"
       x1="94.9881"
       y1="81.1791"
       x2="94.9881"
       y2="-39.0398"
       gradientUnits="userSpaceOnUse">
      <stop
         stop-color="white"
         id="stop89" />
      <stop
         offset="0.336"
         stop-color="#F3F3F3"
         id="stop90" />
      <stop
         offset="1"
         stop-color="#DADADA"
         id="stop91" />
    </linearGradient>
  </defs>
</svg>
